<svg width="421" height="241" viewBox="0 0 421 241" fill="none" xmlns="http://www.w3.org/2000/svg">
<path d="M57.473 137.789V146.33C57.473 161.437 50.352 168.986 36.117 168.986H24.603C10.365 168.986 3.247 161.437 3.247 146.33V58.307C3.247 43.203 10.365 35.651 24.603 35.651H36.117C50.352 35.651 57.473 43.204 57.473 58.307V73.349H39.645V59.607C39.645 54.407 36.981 51.807 31.66 51.807H28.132C23.426 51.807 21.075 54.407 21.075 59.607V145.031C21.075 150.23 23.425 152.83 28.132 152.83H32.589C37.293 152.83 39.646 150.23 39.646 145.031V137.789H57.473Z" fill="#FFEC3C"/>
<path d="M111.142 168.986V108.446H89.229V168.986H71.401V35.651H89.229V92.291H111.142V35.651H128.97V168.986H111.142Z" fill="#FFEC3C"/>
<path d="M145.682 168.986V35.651H176.695C193.408 35.651 201.765 44.193 201.765 61.278V149.674C201.765 162.551 194.645 168.987 180.409 168.987H145.682V168.986ZM163.51 152.83H176.881C181.585 152.83 183.938 150.851 183.938 146.889V61.464C183.938 55.028 181.274 51.808 175.952 51.808H163.51V152.83Z" fill="#FFEC3C"/>
<path d="M257.103 100.461C266.388 102.94 271.031 108.571 271.031 117.36V146.329C271.031 161.436 263.91 168.985 249.675 168.985H237.605C223.367 168.985 216.248 161.436 216.248 146.329V137.788H234.076V145.03C234.076 150.229 236.426 152.829 241.133 152.829H245.218C250.54 152.829 253.203 150.229 253.203 145.03V117.545C253.203 111.728 249.736 108.817 242.804 108.817H237.976V93.774H240.576C247.509 93.774 250.975 90.867 250.975 85.046V59.79C250.975 54.59 248.312 51.99 242.99 51.99H240.576C235.87 51.99 233.519 54.59 233.519 59.79V73.347H215.692V58.491C215.692 43.263 222.809 35.649 237.047 35.649H247.446C261.681 35.649 268.802 43.263 268.802 58.491V85.047C268.803 93.469 264.903 98.605 257.103 100.461Z" fill="#FFEC3C"/>
<path d="M7.472 189.121V194.59H17.521V198.787H7.472V207.215H2.448V184.955H18.443L18.411 189.121H7.472Z" fill="#FFEC3C"/>
<path d="M50.047 196.084C50.047 202.508 44.896 207.437 38.09 207.437C31.285 207.437 26.134 202.539 26.134 196.084C26.134 189.598 31.286 184.795 38.09 184.795C44.896 184.795 50.047 189.629 50.047 196.084ZM31.286 196.084C31.286 199.996 34.434 203.049 38.155 203.049C41.875 203.049 44.896 199.996 44.896 196.084C44.896 192.174 41.875 189.184 38.155 189.184C34.402 189.184 31.286 192.174 31.286 196.084Z" fill="#FFEC3C"/>
<path d="M79.394 197.897C79.394 203.78 75.546 207.438 69.409 207.438C63.24 207.438 59.297 203.78 59.297 197.897V184.956H64.321V197.897C64.321 201.11 66.42 203.049 69.409 203.049C72.398 203.049 74.369 201.11 74.369 197.897V184.956H79.393L79.394 197.897Z" fill="#FFEC3C"/>
<path d="M105.815 207.215L95.035 192.936V207.215H90.234V184.955H94.813L105.624 199.264V184.955H110.394V207.215H105.815Z" fill="#FFEC3C"/>
<path d="M131.091 184.955C137.991 184.955 142.793 189.502 142.793 196.084C142.793 202.635 137.928 207.215 130.9 207.215H121.647V184.955H131.091ZM126.671 202.984H131.218C134.939 202.984 137.674 200.187 137.674 196.117C137.674 192.014 134.812 189.183 130.996 189.183H126.671V202.984Z" fill="#FFEC3C"/>
<path d="M156.241 202.891L154.492 207.215H149.309L158.976 184.955H164.159L173.667 207.215H168.293L166.544 202.891H156.241ZM161.424 190.201L157.894 198.851H164.922L161.424 190.201Z" fill="#FFEC3C"/>
<path d="M189.626 189.217V207.215H184.602V189.217H177.829V184.955H196.432V189.217H189.626Z" fill="#FFEC3C"/>
<path d="M205.49 207.215V184.955H210.514V207.215H205.49Z" fill="#FFEC3C"/>
<path d="M244.124 196.084C244.124 202.508 238.973 207.437 232.168 207.437C225.362 207.437 220.211 202.539 220.211 196.084C220.211 189.598 225.362 184.795 232.168 184.795C238.973 184.795 244.124 189.629 244.124 196.084ZM225.362 196.084C225.362 199.996 228.51 203.049 232.231 203.049C235.952 203.049 238.972 199.996 238.972 196.084C238.972 192.174 235.951 189.184 232.231 189.184C228.478 189.184 225.362 192.174 225.362 196.084Z" fill="#FFEC3C"/>
<path d="M269.369 207.215L258.589 192.936V207.215H253.787V184.955H258.366L269.179 199.264V184.955H273.949V207.215H269.369Z" fill="#FFEC3C"/>
<path d="M349.545 33.249C349.545 33.249 325.793 58.914 316.782 67.923L353.095 70.926L350.637 40.621" fill="#3F51B5"/>
<path d="M355.552 72.564L391.318 75.567C391.318 75.567 380.397 111.334 345.177 153.652C345.177 153.652 350.91 105.6 354.459 74.202" fill="#3F51B5"/>
<path d="M347.088 3.48999C347.088 3.48999 366.746 101.232 335.621 176.586C335.621 176.586 339.443 180.408 324.701 182.045C309.958 183.684 298.49 171.672 286.476 181.5C286.476 181.5 281.016 193.512 302.858 195.152C324.701 196.789 363.469 183.138 372.206 197.334C372.206 197.334 378.759 205.527 366.2 207.711C353.64 209.895 324.701 198.428 327.976 236.106" stroke="black" stroke-width="5.4604" stroke-miterlimit="10" stroke-linecap="round"/>
<path d="M353.095 33.795C353.095 33.795 374.937 52.361 391.045 72.837L354.734 70.653" fill="#FFEC3C"/>
<path d="M313.78 71.745C313.78 71.745 335.075 119.797 341.628 151.74C341.628 151.74 352.003 118.978 351.457 74.475" fill="#FFEC3C"/>
<path d="M349.818 23.693C349.818 23.693 337.259 40.075 306.681 69.562C306.681 69.562 333.437 129.081 338.351 169.487C338.351 169.487 383.672 119.798 398.415 77.207C398.415 77.207 380.396 52.088 349.818 23.693Z" stroke="black" stroke-width="5.4604" stroke-miterlimit="10"/>
<path d="M287.569 67.377C287.569 67.377 403.876 74.476 418.073 75.567" stroke="black" stroke-width="5.4604" stroke-miterlimit="10" stroke-linecap="round"/>
<path d="M327.843 222.277C327.843 222.277 311.795 206.638 307.932 208.47C307.932 208.47 306.846 208.173 306.497 211.714C306.147 215.257 305.804 218.525 305.804 218.525L304.707 218.775L305.491 220.431C305.491 220.431 302.607 227.47 302.038 228.548C301.469 229.63 301.387 233.45 312.103 230.403C322.82 227.358 325.317 225.501 326.93 226.626C328.545 227.755 340.017 240.29 344.107 240.651C348.195 241.014 347.463 236.901 347.488 235.809C347.51 234.717 348.163 229.815 348.163 229.815L350.098 228.766L349.047 226.83C349.047 226.83 353.027 219.543 353.046 218.723C353.063 217.905 352.861 214.623 345.722 216.381C338.582 218.141 327.843 222.277 327.843 222.277Z" fill="#3F51B5"/>
<path d="M9.506 220.748L8.54 222.822C7.368 222.125 5.975 221.681 5.087 221.681C4.248 221.681 3.677 221.982 3.677 222.583C3.677 224.628 9.585 223.487 9.569 227.477C9.569 229.647 7.684 230.819 5.229 230.819C3.408 230.819 1.586 230.122 0.334999 229.061L1.333 227.018C2.474 228.032 4.089 228.682 5.261 228.682C6.29 228.682 6.908 228.301 6.908 227.619C6.908 225.529 1 226.748 1 222.82C1 220.808 2.727 219.541 5.293 219.541C6.846 219.543 8.397 220.02 9.506 220.748Z" fill="#3F51B5"/>
<path d="M19.989 225.389V230.742H17.55V226.101C17.55 225.023 16.916 224.359 15.871 224.359C14.651 224.375 13.923 225.293 13.923 226.544V230.741H11.484V222.22H13.923V223.708C14.525 222.647 15.538 222.14 16.869 222.124C18.77 222.125 19.989 223.393 19.989 225.389Z" fill="#3F51B5"/>
<path d="M24.832 219.797C24.832 220.59 24.294 221.16 23.518 221.16C22.742 221.16 22.204 220.59 22.204 219.797C22.204 219.006 22.743 218.436 23.518 218.436C24.294 218.435 24.832 219.006 24.832 219.797ZM22.298 230.742V222.221H24.737V230.742H22.298Z" fill="#3F51B5"/>
<path d="M29.741 230.996C29.741 232.928 28.363 233.926 26.763 233.926C26.018 233.926 25.306 233.719 24.751 233.356L25.417 231.565C25.733 231.772 26.098 231.899 26.415 231.899C26.938 231.899 27.318 231.598 27.318 230.901V222.221H29.741V230.996ZM29.931 219.797C29.931 220.59 29.361 221.16 28.522 221.16C27.714 221.16 27.112 220.59 27.112 219.797C27.112 218.99 27.714 218.436 28.522 218.436C29.361 218.435 29.931 218.99 29.931 219.797Z" fill="#3F51B5"/>
<path d="M40.779 230.742H38.356V229.49C37.754 230.361 36.836 230.836 35.663 230.836C33.24 230.836 31.64 229.078 31.64 226.449C31.64 223.851 33.224 222.125 35.6 222.125C36.804 222.125 37.738 222.602 38.356 223.473V218.991H40.779V230.742ZM38.355 226.514C38.355 225.119 37.484 224.153 36.232 224.153C34.965 224.153 34.094 225.135 34.078 226.514C34.094 227.907 34.949 228.873 36.232 228.873C37.484 228.873 38.355 227.906 38.355 226.514Z" fill="#3F51B5"/>
<path d="M51.261 227.225H45.147C45.432 228.303 46.256 228.936 47.349 228.936C48.157 228.936 48.917 228.62 49.503 228.034L50.786 229.333C49.931 230.284 48.68 230.837 47.143 230.837C44.419 230.837 42.692 229.095 42.692 226.515C42.692 223.884 44.482 222.142 47.079 222.142C50.073 222.141 51.467 224.121 51.261 227.225ZM48.98 225.785C48.948 224.66 48.22 223.931 47.095 223.931C46.018 223.931 45.289 224.66 45.099 225.785H48.98Z" fill="#3F51B5"/>
<path d="M55.518 223.758C56.104 222.711 57.07 222.141 58.337 222.125V224.422C56.594 224.264 55.518 225.197 55.518 226.639V230.742H53.079V222.221H55.518V223.758Z" fill="#3F51B5"/>
<path d="M66.081 223.06L65.242 224.722C64.307 224.201 63.357 223.9 62.644 223.9C62.074 223.9 61.662 224.089 61.662 224.533C61.662 225.816 66.16 225.166 66.144 228.176C66.144 229.918 64.607 230.836 62.675 230.836C61.297 230.836 59.951 230.426 58.985 229.648L59.777 228.002C60.664 228.684 61.804 229.062 62.739 229.062C63.357 229.062 63.816 228.857 63.816 228.398C63.816 227.035 59.397 227.763 59.397 224.771C59.397 223.011 60.902 222.109 62.755 222.109C63.926 222.109 65.13 222.459 66.081 223.06Z" fill="#3F51B5"/>
<path d="M77.148 219.654C79.587 219.654 81.108 220.717 81.108 222.426C81.108 223.631 80.379 224.565 79.191 224.865C80.616 225.135 81.504 226.211 81.504 227.67C81.504 229.57 79.904 230.742 77.322 230.742H72.048V219.654H77.148ZM74.551 224.121H77.022C77.957 224.121 78.543 223.662 78.543 222.887C78.543 222.125 77.957 221.698 77.022 221.698H74.551V224.121ZM74.551 228.699H77.022C78.21 228.699 78.923 228.207 78.923 227.351C78.923 226.544 78.21 226.052 77.022 226.052H74.551V228.699Z" fill="#3F51B5"/>
<path d="M83.56 230.742V218.99H85.999V230.742H83.56Z" fill="#3F51B5"/>
<path d="M97.053 226.48C97.053 229.078 95.216 230.835 92.492 230.835C89.752 230.835 87.914 229.077 87.914 226.48C87.914 223.867 89.751 222.14 92.492 222.14C95.215 222.141 97.053 223.867 97.053 226.48ZM90.369 226.514C90.369 227.907 91.224 228.858 92.491 228.858C93.742 228.858 94.613 227.907 94.613 226.514C94.613 225.119 93.742 224.168 92.491 224.168C91.224 224.168 90.369 225.119 90.369 226.514Z" fill="#3F51B5"/>
<path d="M101.39 228.43V230.743H98.951V218.99H101.39V225.451L104.51 222.236H107.282L104.161 225.515L107.424 230.742H104.541L102.482 227.273L101.39 228.43Z" fill="#3F51B5"/>
<path d="M122.435 221.412L120.977 223.187C120.217 222.316 119.124 221.746 118.095 221.746C116.194 221.746 114.721 223.219 114.721 225.15C114.721 227.082 116.194 228.572 118.095 228.572C119.093 228.572 120.186 228.064 120.977 227.273L122.45 228.873C121.278 230.076 119.583 230.853 117.968 230.853C114.658 230.853 112.155 228.398 112.155 225.181C112.155 221.982 114.705 219.576 118.063 219.576C119.663 219.576 121.342 220.289 122.435 221.412Z" fill="#3F51B5"/>
<path d="M128.973 229.744C128.403 230.457 127.484 230.853 126.296 230.853C124.475 230.853 123.366 229.744 123.366 228.191C123.366 226.591 124.522 225.642 126.613 225.625H128.957V225.467C128.957 224.565 128.355 224.041 127.183 224.041C126.423 224.041 125.536 224.295 124.649 224.787L123.889 223.107C125.156 222.474 126.249 222.125 127.738 222.125C130.019 222.125 131.333 223.266 131.349 225.182L131.365 230.743H128.973V229.744ZM128.956 227.828V227.066H127.039C126.105 227.066 125.646 227.351 125.646 228.033C125.646 228.683 126.153 229.109 126.977 229.109C128.006 229.109 128.814 228.557 128.956 227.828Z" fill="#3F51B5"/>
<path d="M148.024 225.389V230.742H145.601V226.101C145.601 225.007 144.967 224.359 143.953 224.359C142.781 224.375 142.068 225.293 142.068 226.529V230.742H139.645V226.101C139.645 225.007 139.012 224.359 138.014 224.359C136.826 224.375 136.114 225.293 136.114 226.529V230.742H133.675V222.221H136.114V223.694C136.716 222.649 137.714 222.141 138.996 222.126C140.437 222.126 141.467 222.854 141.879 224.091C142.433 222.777 143.51 222.142 144.952 222.126C146.836 222.125 148.024 223.393 148.024 225.389Z" fill="#3F51B5"/>
<path d="M159.55 226.529C159.55 229.109 157.982 230.836 155.59 230.836C154.402 230.836 153.468 230.361 152.85 229.506V233.815H150.411V222.221H152.85V223.473C153.452 222.618 154.386 222.141 155.542 222.141C157.934 222.141 159.55 223.9 159.55 226.529ZM157.079 226.449C157.079 225.088 156.224 224.105 154.973 224.105C153.722 224.105 152.85 225.072 152.85 226.449C152.85 227.859 153.721 228.808 154.973 228.808C156.224 228.809 157.079 227.844 157.079 226.449Z" fill="#3F51B5"/>
<path d="M169.208 227.225H163.094C163.379 228.303 164.203 228.936 165.296 228.936C166.104 228.936 166.864 228.62 167.45 228.034L168.733 229.333C167.878 230.284 166.627 230.837 165.09 230.837C162.366 230.837 160.639 229.095 160.639 226.515C160.639 223.884 162.429 222.142 165.026 222.142C168.02 222.141 169.414 224.121 169.208 227.225ZM166.927 225.785C166.895 224.66 166.167 223.931 165.042 223.931C163.965 223.931 163.236 224.66 163.046 225.785H166.927Z" fill="#3F51B5"/>
<path d="M175.968 229.744C175.398 230.457 174.479 230.853 173.291 230.853C171.47 230.853 170.361 229.744 170.361 228.191C170.361 226.591 171.517 225.642 173.608 225.625H175.952V225.467C175.952 224.565 175.35 224.041 174.178 224.041C173.418 224.041 172.531 224.295 171.644 224.787L170.884 223.107C172.151 222.474 173.244 222.125 174.733 222.125C177.014 222.125 178.328 223.266 178.344 225.182L178.36 230.743H175.968V229.744ZM175.952 227.828V227.066H174.036C173.101 227.066 172.642 227.351 172.642 228.033C172.642 228.683 173.149 229.109 173.973 229.109C175.002 229.109 175.81 228.557 175.952 227.828Z" fill="#3F51B5"/>
<path d="M188.763 230.742H186.34V229.236C185.754 230.314 184.772 230.836 183.489 230.836C181.604 230.836 180.416 229.586 180.416 227.574V222.221H182.856V226.877C182.856 227.955 183.474 228.603 184.456 228.603C185.628 228.587 186.341 227.669 186.341 226.433V222.22H188.764V230.742H188.763Z" fill="#3F51B5"/>
<path d="M203.662 220.748L202.696 222.822C201.524 222.125 200.13 221.681 199.243 221.681C198.404 221.681 197.833 221.982 197.833 222.583C197.833 224.628 203.741 223.487 203.725 227.477C203.725 229.647 201.84 230.819 199.385 230.819C197.564 230.819 195.742 230.122 194.491 229.061L195.489 227.018C196.63 228.032 198.245 228.682 199.417 228.682C200.446 228.682 201.064 228.301 201.064 227.619C201.064 225.529 195.156 226.748 195.156 222.82C195.156 220.808 196.883 219.541 199.448 219.541C201.001 219.543 202.553 220.02 203.662 220.748Z" fill="#3F51B5"/>
<path d="M209.773 231.691C209.17 233.197 208.126 233.925 206.652 233.925C205.749 233.925 205.037 233.671 204.34 233.101L205.369 231.343C205.749 231.659 206.082 231.802 206.478 231.802C206.985 231.802 207.365 231.548 207.602 231.042L207.839 230.567L204.307 222.219H206.825L209.058 228.078L211.07 222.219H213.508L209.773 231.691Z" fill="#3F51B5"/>
<path d="M223.345 225.389V230.742H220.906V226.101C220.906 225.023 220.272 224.359 219.227 224.359C218.007 224.375 217.279 225.293 217.279 226.544V230.741H214.84V222.22H217.279V223.708C217.881 222.647 218.894 222.14 220.225 222.124C222.125 222.125 223.345 223.393 223.345 225.389Z" fill="#3F51B5"/>
<path d="M234.064 230.742H231.641V229.49C231.039 230.361 230.12 230.836 228.949 230.836C226.525 230.836 224.926 229.078 224.926 226.449C224.926 223.851 226.51 222.125 228.886 222.125C230.089 222.125 231.024 222.602 231.642 223.473V218.991H234.065V230.742H234.064ZM231.642 226.514C231.642 225.119 230.771 224.153 229.52 224.153C228.253 224.153 227.381 225.135 227.366 226.514C227.382 227.907 228.237 228.873 229.52 228.873C230.77 228.873 231.642 227.906 231.642 226.514Z" fill="#3F51B5"/>
<path d="M239.145 223.758C239.731 222.711 240.697 222.141 241.964 222.125V224.422C240.222 224.264 239.145 225.197 239.145 226.639V230.742H236.706V222.221H239.145V223.758Z" fill="#3F51B5"/>
<path d="M251.909 226.48C251.909 229.078 250.072 230.835 247.348 230.835C244.608 230.835 242.771 229.077 242.771 226.48C242.771 223.867 244.608 222.14 247.348 222.14C250.072 222.141 251.909 223.867 251.909 226.48ZM245.226 226.514C245.226 227.907 246.081 228.858 247.348 228.858C248.6 228.858 249.471 227.907 249.471 226.514C249.471 225.119 248.6 224.168 247.348 224.168C246.081 224.168 245.226 225.119 245.226 226.514Z" fill="#3F51B5"/>
<path d="M268.078 225.389V230.742H265.655V226.101C265.655 225.007 265.021 224.359 264.007 224.359C262.835 224.375 262.122 225.293 262.122 226.529V230.742H259.7V226.101C259.7 225.007 259.066 224.359 258.068 224.359C256.88 224.375 256.168 225.293 256.168 226.529V230.742H253.728V222.221H256.168V223.694C256.77 222.649 257.768 222.141 259.051 222.126C260.492 222.126 261.522 222.854 261.934 224.091C262.488 222.777 263.565 222.142 265.006 222.126C266.891 222.125 268.078 223.393 268.078 225.389Z" fill="#3F51B5"/>
<path d="M278.226 227.225H272.113C272.398 228.303 273.221 228.936 274.314 228.936C275.123 228.936 275.882 228.62 276.468 228.034L277.751 229.333C276.895 230.284 275.644 230.837 274.108 230.837C271.383 230.837 269.657 229.095 269.657 226.515C269.657 223.884 271.447 222.142 274.045 222.142C277.038 222.141 278.432 224.121 278.226 227.225ZM275.945 225.785C275.914 224.66 275.184 223.931 274.06 223.931C272.983 223.931 272.254 224.66 272.064 225.785H275.945Z" fill="#3F51B5"/>
</svg>
