<svg viewBox="250 -5 200 250" fill="none" xmlns="http://www.w3.org/2000/svg">
<path d="M349.545 33.249C349.545 33.249 325.793 58.914 316.782 67.923L353.095 70.926L350.637 40.621" fill="#3F51B5"/>
<path d="M355.552 72.564L391.318 75.567C391.318 75.567 380.397 111.334 345.177 153.652C345.177 153.652 350.91 105.6 354.459 74.202" fill="#3F51B5"/>
<path d="M347.088 3.48999C347.088 3.48999 366.746 101.232 335.621 176.586C335.621 176.586 339.443 180.408 324.701 182.045C309.958 183.684 298.49 171.672 286.476 181.5C286.476 181.5 281.016 193.512 302.858 195.152C324.701 196.789 363.469 183.138 372.206 197.334C372.206 197.334 378.759 205.527 366.2 207.711C353.64 209.895 324.701 198.428 327.976 236.106" stroke="black" stroke-width="5.4604" stroke-miterlimit="10" stroke-linecap="round"/>
<path d="M353.095 33.795C353.095 33.795 374.937 52.361 391.045 72.837L354.734 70.653" fill="#FFEC3C"/>
<path d="M313.78 71.745C313.78 71.745 335.075 119.797 341.628 151.74C341.628 151.74 352.003 118.978 351.457 74.475" fill="#FFEC3C"/>
<path d="M349.818 23.693C349.818 23.693 337.259 40.075 306.681 69.562C306.681 69.562 333.437 129.081 338.351 169.487C338.351 169.487 383.672 119.798 398.415 77.207C398.415 77.207 380.396 52.088 349.818 23.693Z" stroke="black" stroke-width="5.4604" stroke-miterlimit="10"/>
<path d="M287.569 67.377C287.569 67.377 403.876 74.476 418.073 75.567" stroke="black" stroke-width="5.4604" stroke-miterlimit="10" stroke-linecap="round"/>
<path d="M327.843 222.277C327.843 222.277 311.795 206.638 307.932 208.47C307.932 208.47 306.846 208.173 306.497 211.714C306.147 215.257 305.804 218.525 305.804 218.525L304.707 218.775L305.491 220.431C305.491 220.431 302.607 227.47 302.038 228.548C301.469 229.63 301.387 233.45 312.103 230.403C322.82 227.358 325.317 225.501 326.93 226.626C328.545 227.755 340.017 240.29 344.107 240.651C348.195 241.014 347.463 236.901 347.488 235.809C347.51 234.717 348.163 229.815 348.163 229.815L350.098 228.766L349.047 226.83C349.047 226.83 353.027 219.543 353.046 218.723C353.063 217.905 352.861 214.623 345.722 216.381C338.582 218.141 327.843 222.277 327.843 222.277Z" fill="#3F51B5"/>
</svg>
